<svg xmlns="http://www.w3.org/2000/svg" xmlns:xlink="http://www.w3.org/1999/xlink" width="500" zoomAndPan="magnify" viewBox="0 0 375 374.999991" height="500" preserveAspectRatio="xMidYMid meet" version="1.2"><defs><clipPath id="4ee7ef0145"><path d="M 135 119 L 240.632812 119 L 240.632812 256.191406 L 135 256.191406 Z M 135 119 "/></clipPath></defs><g id="ea62266fa1"><g clip-rule="nonzero" clip-path="url(#4ee7ef0145)"><path style=" stroke:none;fill-rule:nonzero;fill:#0ec3ca;fill-opacity:1;" d="M 185.988281 254.582031 C 186.613281 254.648438 187.238281 254.722656 187.863281 254.796875 C 186.925781 254.203125 185.988281 253.613281 185.054688 253.019531 C 189.902344 253.558594 194.75 254.09375 199.601562 254.632812 C 198.617188 254.164062 197.628906 253.691406 196.644531 253.21875 C 198.890625 253.578125 201.144531 253.9375 203.390625 254.296875 C 202.21875 253.796875 201.097656 253.167969 200.0625 252.425781 C 205.804688 253.261719 211.558594 253.195312 217.183594 251.714844 C 216.347656 251.492188 215.507812 251.265625 214.667969 251.042969 C 217.292969 251.035156 220.21875 250.902344 222.757812 250.242188 C 221.746094 249.875 220.710938 249.578125 219.660156 249.363281 C 221.132812 249.003906 222.636719 248.769531 224.148438 248.652344 C 223.027344 248.230469 221.875 247.878906 220.707031 247.59375 C 224.8125 246.609375 228.914062 245.597656 233.011719 244.566406 C 231.3125 244.570312 229.617188 243.960938 228.308594 242.871094 C 229.507812 242.574219 230.734375 242.402344 231.96875 242.359375 C 230.722656 241.90625 229.472656 241.449219 228.226562 240.992188 C 230.402344 240.671875 232.601562 240.488281 234.800781 240.449219 C 232.609375 238.9375 230.503906 237.304688 228.5 235.558594 C 229.753906 235.703125 230.992188 236.035156 232.152344 236.535156 C 230.335938 235.160156 228.402344 233.945312 226.371094 232.90625 C 227.675781 233.195312 228.933594 233.683594 230.09375 234.34375 C 225.941406 230.59375 220.648438 228.128906 215.105469 227.359375 C 216.449219 227.15625 217.789062 226.960938 219.128906 226.761719 C 216.441406 225.921875 213.601562 225.566406 210.789062 225.710938 C 211.820312 225.441406 212.855469 225.171875 213.882812 224.902344 C 211.738281 224.726562 209.582031 224.671875 207.429688 224.730469 C 206.421875 224.761719 205.304688 224.984375 204.304688 224.878906 C 203.636719 224.808594 203.039062 224.585938 202.34375 224.574219 C 200.945312 224.554688 198.585938 224.355469 197.304688 224.992188 C 197.902344 224.695312 198.5 224.398438 199.101562 224.105469 C 196.230469 224.023438 193.90625 224.519531 191.160156 225.304688 C 193.074219 223.90625 195.261719 222.898438 197.5625 222.347656 C 197.210938 222.816406 196.769531 223.21875 196.273438 223.53125 C 197.941406 223.082031 199.53125 222.539062 201.265625 222.511719 C 200.453125 220.675781 199.378906 218.804688 198.9375 216.839844 C 198.554688 215.132812 198.164062 213.179688 198.121094 211.441406 C 198.058594 208.933594 198.933594 206.074219 199.351562 203.601562 C 199.546875 202.445312 199.753906 201.285156 200.152344 200.183594 C 201.078125 197.632812 203.085938 195.492188 205.578125 194.414062 C 205.644531 194.898438 205.707031 195.382812 205.773438 195.867188 C 207.089844 194.195312 208.140625 192.308594 208.871094 190.308594 C 208.964844 191.15625 209.121094 191.992188 209.339844 192.820312 C 210.785156 190.265625 211.902344 187.523438 212.648438 184.6875 C 212.871094 185.371094 213.015625 186.078125 213.074219 186.796875 C 214.027344 184.8125 214.480469 182.59375 214.371094 180.390625 C 214.574219 181.058594 214.777344 181.730469 214.976562 182.398438 C 215.699219 180.15625 216.125 177.816406 216.238281 175.460938 C 216.285156 174.5 216.148438 173.566406 216.203125 172.628906 C 216.273438 171.492188 216.519531 170.359375 216.601562 169.21875 C 216.71875 167.542969 216.316406 166.722656 217.277344 165.234375 C 218.066406 164.011719 219.296875 163.015625 219.871094 161.695312 C 219.625 162.257812 216.359375 159.5 216.15625 159.257812 C 219.128906 161.261719 223.203125 160.472656 226.546875 161.574219 C 226.300781 161.746094 226.125 162.007812 226.046875 162.296875 C 226.890625 162.078125 227.761719 161.949219 228.632812 161.921875 C 228.367188 162.191406 228.199219 162.554688 228.175781 162.929688 C 229.707031 163.105469 231.285156 162.851562 232.6875 162.203125 C 233.089844 162.019531 233.480469 161.804688 233.914062 161.71875 C 234.253906 161.652344 234.605469 161.671875 234.945312 161.601562 C 235.628906 161.46875 236.191406 160.996094 236.71875 160.542969 C 238.050781 159.429688 239.390625 158.28125 240.328125 156.820312 C 240.464844 156.601562 240.605469 156.34375 240.546875 156.09375 C 240.480469 155.816406 240.210938 155.644531 239.964844 155.503906 C 238.003906 154.355469 236.121094 153.078125 234.335938 151.675781 C 232.566406 150.285156 230.820312 148.667969 230.113281 146.53125 C 229.691406 145.253906 229.675781 143.886719 229.484375 142.558594 C 229.128906 140.101562 227.433594 137.667969 226.191406 135.535156 C 224.953125 133.410156 223.332031 131.578125 220.832031 131.039062 C 219.558594 128.742188 219.773438 125.566406 220.171875 123.042969 C 220.363281 122.042969 220.953125 119.578125 219.507812 119.230469 C 218.320312 118.941406 216.636719 120.976562 215.976562 121.683594 C 214.527344 123.246094 213.308594 124.996094 212.222656 126.820312 C 210.726562 129.332031 210.417969 131.855469 209.675781 134.6875 C 209.054688 133.476562 208.8125 132.066406 208.996094 130.71875 C 202.546875 131.476562 197.554688 135.324219 193.21875 139.980469 C 191.027344 142.339844 189.039062 144.882812 187.164062 147.496094 C 185.730469 149.5 183.03125 152.3125 182.351562 154.691406 C 177.847656 167.875 167.144531 176.910156 158.203125 186.03125 C 152.195312 189.578125 148.214844 195.417969 146.324219 202.058594 C 145.398438 205.324219 144.941406 208.714844 144.808594 212.105469 C 144.683594 215.242188 147.035156 220.722656 144.691406 223.222656 C 142.421875 225.640625 139.066406 225.726562 137.082031 229.050781 C 134.816406 232.847656 134.394531 237.992188 137.691406 241.347656 C 138.785156 243.820312 141.101562 245.847656 143.117188 247.585938 C 144.183594 248.5 145.324219 249.324219 146.527344 250.046875 C 147.15625 250.425781 147.800781 250.773438 148.460938 251.09375 C 148.863281 251.285156 149.867188 251.5 150.140625 251.824219 C 149.621094 251.210938 148.863281 250.804688 148.0625 250.703125 C 152.945312 252.804688 158.023438 254.460938 163.210938 255.632812 C 162.796875 255.21875 162.382812 254.800781 161.96875 254.390625 C 163.398438 254.84375 164.824219 255.296875 166.257812 255.746094 C 165.644531 255.347656 165.027344 254.949219 164.414062 254.546875 C 165.75 255.113281 167.144531 255.535156 168.570312 255.808594 C 167.730469 255.273438 166.890625 254.742188 166.054688 254.203125 C 168.296875 254.648438 170.53125 255.09375 172.773438 255.539062 C 171.867188 255.09375 170.960938 254.648438 170.058594 254.203125 C 174.890625 254.820312 179.722656 255.433594 184.558594 256.050781 C 183.324219 255.683594 182.175781 255.042969 181.214844 254.191406 C 182.808594 254.285156 184.398438 254.414062 185.988281 254.582031 Z M 185.988281 254.582031 "/></g><g style="fill:#0ec3ca;fill-opacity:1;"><g transform="translate(207.265932, 152.910789)"><path style="stroke:none" d="M 6.96875 0.203125 C 5.664062 0.203125 4.515625 -0.0703125 3.515625 -0.625 C 2.515625 -1.175781 1.796875 -1.925781 1.359375 -2.875 C 1.296875 -2.96875 1.265625 -3.078125 1.265625 -3.203125 C 1.265625 -3.390625 1.335938 -3.546875 1.484375 -3.671875 C 1.628906 -3.804688 1.828125 -3.875 2.078125 -3.875 C 2.234375 -3.875 2.382812 -3.828125 2.53125 -3.734375 C 2.675781 -3.648438 2.78125 -3.523438 2.84375 -3.359375 C 3.164062 -2.742188 3.691406 -2.25 4.421875 -1.875 C 5.148438 -1.5 6 -1.3125 6.96875 -1.3125 C 8.09375 -1.3125 8.992188 -1.582031 9.671875 -2.125 C 10.359375 -2.664062 10.703125 -3.421875 10.703125 -4.390625 C 10.703125 -5.242188 10.382812 -5.960938 9.75 -6.546875 C 9.113281 -7.140625 8.160156 -7.519531 6.890625 -7.6875 C 5.304688 -7.875 4.054688 -8.367188 3.140625 -9.171875 C 2.234375 -9.972656 1.78125 -10.953125 1.78125 -12.109375 C 1.78125 -12.929688 2 -13.65625 2.4375 -14.28125 C 2.882812 -14.90625 3.5 -15.382812 4.28125 -15.71875 C 5.070312 -16.050781 5.96875 -16.21875 6.96875 -16.21875 C 8.050781 -16.21875 9 -15.976562 9.8125 -15.5 C 10.632812 -15.019531 11.28125 -14.394531 11.75 -13.625 C 11.84375 -13.476562 11.890625 -13.316406 11.890625 -13.140625 C 11.890625 -12.878906 11.765625 -12.675781 11.515625 -12.53125 C 11.410156 -12.46875 11.289062 -12.4375 11.15625 -12.4375 C 11 -12.4375 10.851562 -12.472656 10.71875 -12.546875 C 10.59375 -12.628906 10.488281 -12.738281 10.40625 -12.875 C 9.644531 -14.070312 8.492188 -14.679688 6.953125 -14.703125 C 5.835938 -14.703125 4.957031 -14.46875 4.3125 -14 C 3.675781 -13.53125 3.359375 -12.867188 3.359375 -12.015625 C 3.359375 -10.410156 4.648438 -9.441406 7.234375 -9.109375 C 8.929688 -8.859375 10.195312 -8.335938 11.03125 -7.546875 C 11.863281 -6.753906 12.28125 -5.707031 12.28125 -4.40625 C 12.28125 -3.445312 12.046875 -2.617188 11.578125 -1.921875 C 11.117188 -1.222656 10.484375 -0.691406 9.671875 -0.328125 C 8.867188 0.0234375 7.96875 0.203125 6.96875 0.203125 Z M 6.96875 0.203125 "/></g></g></g></svg>