<svg xmlns="http://www.w3.org/2000/svg" xmlns:xlink="http://www.w3.org/1999/xlink" width="50" zoomAndPan="magnify" viewBox="0 0 37.5 37.499999" height="50" preserveAspectRatio="xMidYMid meet" version="1.2"><defs><clipPath id="654c2448f8"><path d="M 7.117188 3.585938 L 29.886719 3.585938 L 29.886719 33.191406 L 7.117188 33.191406 Z M 7.117188 3.585938 "/></clipPath></defs><g id="0b75400340"><g clip-rule="nonzero" clip-path="url(#654c2448f8)"><path style=" stroke:none;fill-rule:nonzero;fill:#0ec3ca;fill-opacity:1;" d="M 18.261719 32.871094 C 18.398438 32.886719 18.53125 32.902344 18.667969 32.917969 C 18.464844 32.789062 18.261719 32.664062 18.0625 32.535156 C 19.109375 32.652344 20.15625 32.765625 21.203125 32.882812 C 20.988281 32.78125 20.777344 32.679688 20.5625 32.578125 C 21.046875 32.65625 21.535156 32.734375 22.019531 32.808594 C 21.765625 32.703125 21.523438 32.566406 21.300781 32.40625 C 22.542969 32.585938 23.785156 32.574219 24.996094 32.253906 C 24.816406 32.203125 24.636719 32.15625 24.453125 32.109375 C 25.023438 32.105469 25.652344 32.078125 26.199219 31.933594 C 25.984375 31.855469 25.757812 31.792969 25.53125 31.746094 C 25.851562 31.667969 26.175781 31.617188 26.5 31.589844 C 26.257812 31.5 26.011719 31.425781 25.757812 31.363281 C 26.644531 31.148438 27.53125 30.933594 28.414062 30.707031 C 28.046875 30.710938 27.679688 30.578125 27.398438 30.34375 C 27.65625 30.277344 27.921875 30.242188 28.191406 30.234375 C 27.921875 30.132812 27.652344 30.035156 27.382812 29.9375 C 27.851562 29.867188 28.324219 29.828125 28.800781 29.820312 C 28.328125 29.496094 27.875 29.140625 27.441406 28.765625 C 27.710938 28.796875 27.980469 28.867188 28.230469 28.976562 C 27.835938 28.679688 27.417969 28.417969 26.980469 28.191406 C 27.261719 28.253906 27.535156 28.359375 27.785156 28.5 C 26.886719 27.691406 25.746094 27.160156 24.550781 26.996094 C 24.839844 26.949219 25.128906 26.910156 25.417969 26.863281 C 24.835938 26.683594 24.222656 26.609375 23.617188 26.636719 C 23.839844 26.578125 24.0625 26.523438 24.285156 26.464844 C 23.820312 26.425781 23.355469 26.414062 22.890625 26.425781 C 22.675781 26.433594 22.433594 26.480469 22.21875 26.457031 C 22.074219 26.445312 21.945312 26.394531 21.792969 26.394531 C 21.492188 26.390625 20.980469 26.347656 20.707031 26.484375 C 20.835938 26.417969 20.964844 26.355469 21.09375 26.292969 C 20.472656 26.273438 19.972656 26.382812 19.378906 26.550781 C 19.792969 26.25 20.265625 26.03125 20.761719 25.914062 C 20.683594 26.011719 20.589844 26.101562 20.484375 26.167969 C 20.84375 26.070312 21.1875 25.953125 21.5625 25.949219 C 21.386719 25.550781 21.152344 25.148438 21.058594 24.722656 C 20.976562 24.355469 20.890625 23.933594 20.882812 23.558594 C 20.867188 23.015625 21.058594 22.398438 21.148438 21.863281 C 21.191406 21.617188 21.234375 21.367188 21.320312 21.128906 C 21.519531 20.578125 21.953125 20.113281 22.492188 19.882812 C 22.507812 19.984375 22.519531 20.089844 22.535156 20.195312 C 22.820312 19.835938 23.046875 19.425781 23.203125 18.996094 C 23.222656 19.179688 23.257812 19.359375 23.304688 19.539062 C 23.617188 18.984375 23.859375 18.394531 24.019531 17.78125 C 24.066406 17.929688 24.097656 18.082031 24.109375 18.238281 C 24.316406 17.808594 24.414062 17.328125 24.390625 16.855469 C 24.433594 17 24.476562 17.144531 24.519531 17.289062 C 24.675781 16.804688 24.769531 16.296875 24.792969 15.789062 C 24.804688 15.582031 24.773438 15.378906 24.785156 15.179688 C 24.800781 14.933594 24.855469 14.6875 24.871094 14.441406 C 24.898438 14.082031 24.808594 13.902344 25.019531 13.582031 C 25.1875 13.316406 25.453125 13.101562 25.578125 12.816406 C 25.523438 12.941406 24.820312 12.34375 24.777344 12.292969 C 25.417969 12.722656 26.296875 12.554688 27.019531 12.792969 C 26.964844 12.828125 26.929688 12.886719 26.910156 12.949219 C 27.09375 12.898438 27.28125 12.871094 27.46875 12.867188 C 27.414062 12.925781 27.375 13.003906 27.371094 13.085938 C 27.703125 13.121094 28.042969 13.066406 28.34375 12.929688 C 28.429688 12.886719 28.515625 12.839844 28.609375 12.824219 C 28.683594 12.808594 28.757812 12.8125 28.832031 12.796875 C 28.980469 12.769531 29.101562 12.667969 29.214844 12.570312 C 29.503906 12.328125 29.792969 12.082031 29.996094 11.765625 C 30.023438 11.71875 30.054688 11.664062 30.042969 11.609375 C 30.027344 11.546875 29.96875 11.511719 29.917969 11.480469 C 29.492188 11.234375 29.085938 10.957031 28.699219 10.65625 C 28.320312 10.355469 27.941406 10.003906 27.789062 9.542969 C 27.699219 9.269531 27.695312 8.972656 27.652344 8.6875 C 27.578125 8.15625 27.210938 7.628906 26.941406 7.167969 C 26.675781 6.710938 26.324219 6.316406 25.785156 6.199219 C 25.511719 5.703125 25.554688 5.019531 25.644531 4.472656 C 25.683594 4.257812 25.8125 3.726562 25.5 3.648438 C 25.242188 3.585938 24.878906 4.027344 24.738281 4.179688 C 24.425781 4.515625 24.160156 4.894531 23.925781 5.289062 C 23.605469 5.832031 23.535156 6.375 23.375 6.988281 C 23.242188 6.726562 23.191406 6.421875 23.230469 6.128906 C 21.835938 6.292969 20.757812 7.125 19.824219 8.128906 C 19.351562 8.640625 18.921875 9.1875 18.515625 9.753906 C 18.207031 10.183594 17.625 10.792969 17.476562 11.304688 C 16.503906 14.152344 14.195312 16.101562 12.265625 18.070312 C 10.96875 18.835938 10.109375 20.097656 9.699219 21.53125 C 9.5 22.238281 9.402344 22.96875 9.371094 23.699219 C 9.34375 24.378906 9.851562 25.5625 9.347656 26.101562 C 8.855469 26.625 8.132812 26.640625 7.703125 27.359375 C 7.214844 28.179688 7.125 29.289062 7.835938 30.015625 C 8.070312 30.546875 8.570312 30.984375 9.007812 31.359375 C 9.238281 31.558594 9.484375 31.738281 9.742188 31.894531 C 9.878906 31.972656 10.019531 32.050781 10.160156 32.117188 C 10.246094 32.160156 10.464844 32.207031 10.523438 32.277344 C 10.410156 32.144531 10.246094 32.054688 10.074219 32.035156 C 11.128906 32.488281 12.226562 32.84375 13.34375 33.097656 C 13.257812 33.007812 13.167969 32.917969 13.078125 32.832031 C 13.386719 32.929688 13.695312 33.027344 14.003906 33.125 C 13.871094 33.035156 13.738281 32.949219 13.605469 32.863281 C 13.894531 32.984375 14.195312 33.078125 14.503906 33.136719 C 14.320312 33.019531 14.140625 32.90625 13.960938 32.789062 C 14.441406 32.886719 14.925781 32.980469 15.410156 33.078125 C 15.214844 32.980469 15.019531 32.886719 14.824219 32.789062 C 15.867188 32.921875 16.910156 33.054688 17.953125 33.1875 C 17.6875 33.109375 17.4375 32.972656 17.230469 32.785156 C 17.578125 32.808594 17.917969 32.835938 18.261719 32.871094 Z M 18.261719 32.871094 "/></g><g style="fill:#0ec3ca;fill-opacity:1;"><g transform="translate(22.803605, 10.977995)"><path style="stroke:none" d="M 1.515625 0.046875 C 1.234375 0.046875 0.984375 -0.0078125 0.765625 -0.125 C 0.546875 -0.25 0.390625 -0.414062 0.296875 -0.625 C 0.285156 -0.644531 0.28125 -0.664062 0.28125 -0.6875 C 0.28125 -0.726562 0.296875 -0.765625 0.328125 -0.796875 C 0.359375 -0.828125 0.398438 -0.84375 0.453125 -0.84375 C 0.484375 -0.84375 0.515625 -0.832031 0.546875 -0.8125 C 0.578125 -0.789062 0.601562 -0.765625 0.625 -0.734375 C 0.6875 -0.597656 0.796875 -0.488281 0.953125 -0.40625 C 1.117188 -0.320312 1.304688 -0.28125 1.515625 -0.28125 C 1.753906 -0.28125 1.945312 -0.335938 2.09375 -0.453125 C 2.25 -0.578125 2.328125 -0.742188 2.328125 -0.953125 C 2.328125 -1.140625 2.253906 -1.296875 2.109375 -1.421875 C 1.972656 -1.546875 1.769531 -1.628906 1.5 -1.671875 C 1.15625 -1.710938 0.882812 -1.816406 0.6875 -1.984375 C 0.488281 -2.160156 0.390625 -2.375 0.390625 -2.625 C 0.390625 -2.8125 0.4375 -2.96875 0.53125 -3.09375 C 0.625 -3.226562 0.753906 -3.332031 0.921875 -3.40625 C 1.097656 -3.476562 1.296875 -3.515625 1.515625 -3.515625 C 1.742188 -3.515625 1.945312 -3.460938 2.125 -3.359375 C 2.3125 -3.253906 2.453125 -3.125 2.546875 -2.96875 C 2.566406 -2.925781 2.578125 -2.890625 2.578125 -2.859375 C 2.578125 -2.796875 2.550781 -2.75 2.5 -2.71875 C 2.476562 -2.707031 2.453125 -2.703125 2.421875 -2.703125 C 2.390625 -2.703125 2.359375 -2.707031 2.328125 -2.71875 C 2.296875 -2.738281 2.273438 -2.765625 2.265625 -2.796875 C 2.097656 -3.054688 1.847656 -3.1875 1.515625 -3.1875 C 1.273438 -3.1875 1.082031 -3.132812 0.9375 -3.03125 C 0.800781 -2.9375 0.734375 -2.796875 0.734375 -2.609375 C 0.734375 -2.265625 1.015625 -2.054688 1.578125 -1.984375 C 1.941406 -1.921875 2.210938 -1.800781 2.390625 -1.625 C 2.578125 -1.457031 2.671875 -1.234375 2.671875 -0.953125 C 2.671875 -0.742188 2.617188 -0.5625 2.515625 -0.40625 C 2.410156 -0.257812 2.269531 -0.144531 2.09375 -0.0625 C 1.925781 0.0078125 1.734375 0.046875 1.515625 0.046875 Z M 1.515625 0.046875 "/></g></g></g></svg>