<svg xmlns="http://www.w3.org/2000/svg" xmlns:xlink="http://www.w3.org/1999/xlink" width="50" zoomAndPan="magnify" viewBox="0 0 37.5 37.499999" height="50" preserveAspectRatio="xMidYMid meet" version="1.2"><defs><clipPath id="72cf81646b"><path d="M 4.53125 0.238281 L 32.472656 0.238281 L 32.472656 36.503906 L 4.53125 36.503906 Z M 4.53125 0.238281 "/></clipPath></defs><g id="fcb13234d3"><g clip-rule="nonzero" clip-path="url(#72cf81646b)"><path style=" stroke:none;fill-rule:nonzero;fill:#0ec3ca;fill-opacity:1;" d="M 18.203125 36.113281 C 18.371094 36.132812 18.535156 36.152344 18.699219 36.171875 C 18.453125 36.015625 18.203125 35.859375 17.957031 35.699219 C 19.238281 35.84375 20.523438 35.984375 21.804688 36.128906 C 21.546875 36.003906 21.285156 35.878906 21.023438 35.753906 C 21.617188 35.847656 22.214844 35.945312 22.808594 36.039062 C 22.5 35.90625 22.203125 35.742188 21.925781 35.542969 C 23.445312 35.765625 24.96875 35.75 26.457031 35.355469 C 26.234375 35.296875 26.011719 35.238281 25.789062 35.179688 C 26.484375 35.175781 27.257812 35.140625 27.929688 34.964844 C 27.664062 34.867188 27.390625 34.789062 27.109375 34.734375 C 27.5 34.640625 27.898438 34.578125 28.300781 34.546875 C 28 34.433594 27.695312 34.339844 27.386719 34.265625 C 28.472656 34.003906 29.558594 33.738281 30.644531 33.464844 C 30.191406 33.464844 29.746094 33.304688 29.398438 33.015625 C 29.714844 32.9375 30.039062 32.894531 30.367188 32.882812 C 30.035156 32.761719 29.707031 32.640625 29.375 32.519531 C 29.953125 32.433594 30.535156 32.386719 31.117188 32.375 C 30.535156 31.976562 29.980469 31.542969 29.449219 31.082031 C 29.78125 31.121094 30.109375 31.207031 30.414062 31.339844 C 29.933594 30.976562 29.421875 30.65625 28.886719 30.378906 C 29.230469 30.457031 29.5625 30.585938 29.871094 30.761719 C 28.773438 29.769531 27.371094 29.117188 25.90625 28.914062 C 26.261719 28.859375 26.617188 28.808594 26.972656 28.753906 C 26.261719 28.535156 25.507812 28.441406 24.765625 28.476562 C 25.039062 28.40625 25.3125 28.335938 25.582031 28.265625 C 25.015625 28.21875 24.445312 28.203125 23.875 28.21875 C 23.609375 28.226562 23.316406 28.285156 23.050781 28.257812 C 22.875 28.238281 22.714844 28.179688 22.53125 28.175781 C 22.160156 28.171875 21.535156 28.121094 21.199219 28.289062 C 21.355469 28.210938 21.515625 28.132812 21.671875 28.054688 C 20.914062 28.03125 20.296875 28.164062 19.574219 28.371094 C 20.078125 28 20.65625 27.734375 21.265625 27.589844 C 21.171875 27.710938 21.054688 27.820312 20.925781 27.902344 C 21.367188 27.78125 21.785156 27.640625 22.246094 27.632812 C 22.03125 27.144531 21.746094 26.652344 21.628906 26.132812 C 21.527344 25.679688 21.425781 25.164062 21.414062 24.703125 C 21.398438 24.039062 21.628906 23.285156 21.738281 22.628906 C 21.792969 22.324219 21.84375 22.019531 21.949219 21.726562 C 22.195312 21.050781 22.726562 20.484375 23.386719 20.199219 C 23.402344 20.328125 23.421875 20.457031 23.4375 20.585938 C 23.785156 20.140625 24.0625 19.644531 24.257812 19.113281 C 24.28125 19.335938 24.324219 19.558594 24.382812 19.777344 C 24.765625 19.101562 25.058594 18.378906 25.257812 17.625 C 25.316406 17.808594 25.355469 17.996094 25.367188 18.183594 C 25.621094 17.660156 25.742188 17.074219 25.710938 16.492188 C 25.765625 16.667969 25.820312 16.84375 25.871094 17.023438 C 26.0625 16.429688 26.175781 15.808594 26.207031 15.1875 C 26.21875 14.933594 26.183594 14.683594 26.195312 14.4375 C 26.214844 14.136719 26.28125 13.835938 26.300781 13.535156 C 26.332031 13.09375 26.226562 12.875 26.480469 12.480469 C 26.6875 12.15625 27.015625 11.894531 27.167969 11.542969 C 27.101562 11.695312 26.238281 10.964844 26.183594 10.898438 C 26.972656 11.429688 28.046875 11.222656 28.933594 11.511719 C 28.867188 11.558594 28.820312 11.628906 28.800781 11.703125 C 29.023438 11.644531 29.253906 11.613281 29.484375 11.605469 C 29.414062 11.675781 29.371094 11.773438 29.363281 11.871094 C 29.769531 11.917969 30.1875 11.851562 30.558594 11.679688 C 30.664062 11.628906 30.765625 11.574219 30.882812 11.550781 C 30.972656 11.535156 31.066406 11.539062 31.15625 11.519531 C 31.335938 11.484375 31.484375 11.359375 31.625 11.242188 C 31.976562 10.945312 32.328125 10.644531 32.578125 10.253906 C 32.613281 10.199219 32.652344 10.128906 32.636719 10.0625 C 32.617188 9.988281 32.546875 9.945312 32.484375 9.90625 C 31.964844 9.605469 31.464844 9.265625 30.992188 8.894531 C 30.523438 8.527344 30.0625 8.101562 29.875 7.535156 C 29.765625 7.195312 29.761719 6.835938 29.710938 6.484375 C 29.617188 5.832031 29.167969 5.191406 28.839844 4.625 C 28.511719 4.0625 28.082031 3.578125 27.421875 3.4375 C 27.082031 2.828125 27.140625 1.988281 27.246094 1.320312 C 27.296875 1.058594 27.453125 0.40625 27.070312 0.3125 C 26.757812 0.238281 26.3125 0.773438 26.136719 0.960938 C 25.753906 1.375 25.433594 1.839844 25.144531 2.320312 C 24.75 2.984375 24.667969 3.652344 24.46875 4.402344 C 24.304688 4.082031 24.242188 3.707031 24.289062 3.351562 C 22.585938 3.550781 21.265625 4.570312 20.117188 5.800781 C 19.539062 6.425781 19.011719 7.097656 18.515625 7.789062 C 18.136719 8.320312 17.421875 9.0625 17.242188 9.691406 C 16.050781 13.179688 13.21875 15.570312 10.855469 17.984375 C 9.265625 18.921875 8.214844 20.464844 7.714844 22.222656 C 7.46875 23.085938 7.347656 23.980469 7.3125 24.878906 C 7.277344 25.707031 7.902344 27.160156 7.28125 27.820312 C 6.679688 28.460938 5.792969 28.484375 5.269531 29.363281 C 4.667969 30.367188 4.558594 31.726562 5.429688 32.613281 C 5.71875 33.269531 6.332031 33.804688 6.867188 34.265625 C 7.148438 34.507812 7.449219 34.722656 7.769531 34.914062 C 7.933594 35.015625 8.105469 35.109375 8.277344 35.191406 C 8.386719 35.242188 8.652344 35.300781 8.722656 35.386719 C 8.585938 35.222656 8.386719 35.113281 8.171875 35.089844 C 9.464844 35.644531 10.808594 36.082031 12.179688 36.394531 C 12.070312 36.28125 11.960938 36.171875 11.851562 36.0625 C 12.230469 36.183594 12.605469 36.304688 12.984375 36.421875 C 12.824219 36.316406 12.660156 36.210938 12.5 36.105469 C 12.851562 36.253906 13.222656 36.367188 13.597656 36.4375 C 13.375 36.296875 13.152344 36.15625 12.933594 36.015625 C 13.523438 36.132812 14.117188 36.25 14.710938 36.367188 C 14.46875 36.25 14.230469 36.132812 13.992188 36.015625 C 15.269531 36.175781 16.546875 36.339844 17.828125 36.503906 C 17.5 36.40625 17.195312 36.238281 16.941406 36.011719 C 17.363281 36.035156 17.785156 36.070312 18.203125 36.113281 Z M 18.203125 36.113281 "/></g><g style="fill:#0ec3ca;fill-opacity:1;"><g transform="translate(23.769693, 9.287398)"><path style="stroke:none" d="M 1.859375 0.0625 C 1.515625 0.0625 1.207031 -0.0078125 0.9375 -0.15625 C 0.664062 -0.3125 0.472656 -0.515625 0.359375 -0.765625 C 0.347656 -0.785156 0.34375 -0.816406 0.34375 -0.859375 C 0.34375 -0.910156 0.359375 -0.953125 0.390625 -0.984375 C 0.429688 -1.015625 0.484375 -1.03125 0.546875 -1.03125 C 0.597656 -1.03125 0.640625 -1.019531 0.671875 -1 C 0.710938 -0.976562 0.742188 -0.941406 0.765625 -0.890625 C 0.847656 -0.734375 0.984375 -0.601562 1.171875 -0.5 C 1.367188 -0.394531 1.597656 -0.34375 1.859375 -0.34375 C 2.160156 -0.34375 2.398438 -0.414062 2.578125 -0.5625 C 2.765625 -0.707031 2.859375 -0.910156 2.859375 -1.171875 C 2.859375 -1.398438 2.769531 -1.59375 2.59375 -1.75 C 2.425781 -1.90625 2.175781 -2.003906 1.84375 -2.046875 C 1.414062 -2.097656 1.078125 -2.226562 0.828125 -2.4375 C 0.585938 -2.65625 0.46875 -2.921875 0.46875 -3.234375 C 0.46875 -3.453125 0.523438 -3.644531 0.640625 -3.8125 C 0.765625 -3.976562 0.929688 -4.101562 1.140625 -4.1875 C 1.347656 -4.28125 1.585938 -4.328125 1.859375 -4.328125 C 2.148438 -4.328125 2.40625 -4.257812 2.625 -4.125 C 2.84375 -4 3.015625 -3.835938 3.140625 -3.640625 C 3.160156 -3.597656 3.171875 -3.550781 3.171875 -3.5 C 3.171875 -3.4375 3.140625 -3.382812 3.078125 -3.34375 C 3.046875 -3.320312 3.007812 -3.3125 2.96875 -3.3125 C 2.9375 -3.3125 2.898438 -3.320312 2.859375 -3.34375 C 2.828125 -3.363281 2.800781 -3.394531 2.78125 -3.4375 C 2.570312 -3.757812 2.265625 -3.921875 1.859375 -3.921875 C 1.554688 -3.921875 1.316406 -3.859375 1.140625 -3.734375 C 0.972656 -3.609375 0.890625 -3.429688 0.890625 -3.203125 C 0.890625 -2.773438 1.238281 -2.515625 1.9375 -2.421875 C 2.382812 -2.359375 2.71875 -2.222656 2.9375 -2.015625 C 3.164062 -1.804688 3.28125 -1.523438 3.28125 -1.171875 C 3.28125 -0.921875 3.21875 -0.703125 3.09375 -0.515625 C 2.96875 -0.328125 2.796875 -0.179688 2.578125 -0.078125 C 2.367188 0.015625 2.128906 0.0625 1.859375 0.0625 Z M 1.859375 0.0625 "/></g></g></g></svg>